<?xml version="1.0" encoding="UTF-8" standalone="no"?>
<!-- Created with Inkscape (http://www.inkscape.org/) -->

<svg
   xmlns:dc="http://purl.org/dc/elements/1.1/"
   xmlns:cc="http://creativecommons.org/ns#"
   xmlns:rdf="http://www.w3.org/1999/02/22-rdf-syntax-ns#"
   xmlns:svg="http://www.w3.org/2000/svg"
   xmlns="http://www.w3.org/2000/svg"
   xmlns:sodipodi="http://sodipodi.sourceforge.net/DTD/sodipodi-0.dtd"
   xmlns:inkscape="http://www.inkscape.org/namespaces/inkscape"
   width="64.688446mm"
   height="32.49979mm"
   viewBox="0 0 64.688446 32.49979"
   version="1.1"
   id="svg8"
   sodipodi:docname="bg.svg"
   inkscape:version="0.92.3 (2405546, 2018-03-11)">
  <defs
     id="defs2" />
  <sodipodi:namedview
     id="base"
     pagecolor="#ffffff"
     bordercolor="#666666"
     borderopacity="1.0"
     inkscape:pageopacity="0.0"
     inkscape:pageshadow="2"
     inkscape:zoom="3.959798"
     inkscape:cx="135.2724"
     inkscape:cy="64.643626"
     inkscape:document-units="mm"
     inkscape:current-layer="layer1"
     showgrid="false"
     fit-margin-top="0"
     fit-margin-left="0"
     fit-margin-right="0"
     fit-margin-bottom="0"
     inkscape:window-width="1920"
     inkscape:window-height="1017"
     inkscape:window-x="1912"
     inkscape:window-y="-8"
     inkscape:window-maximized="1" />
  <metadata
     id="metadata5">
    <rdf:RDF>
      <cc:Work
         rdf:about="">
        <dc:format>image/svg+xml</dc:format>
        <dc:type
           rdf:resource="http://purl.org/dc/dcmitype/StillImage" />
        <dc:title></dc:title>
      </cc:Work>
    </rdf:RDF>
  </metadata>
  <g
     inkscape:label="Layer 1"
     inkscape:groupmode="layer"
     id="layer1"
     transform="translate(-94.655777,-72.863201)">
    <path
       style="fill:#4c006c;fill-opacity:0.94117647;stroke:none;stroke-width:0.21670805;stroke-opacity:1"
       d="m 120.94379,72.912581 v 2.30379 h 4.64605 v 11.9606 h 2.5205 v -11.9606 h 4.64565 v -2.30379 z"
       id="rect4592-1"
       inkscape:connector-curvature="0" />
    <path
       style="fill:#4c006c;fill-opacity:0.94117647;stroke:none;stroke-width:0.2010119;stroke-opacity:1"
       d="m 114.23109,76.922611 v 2.54445 7.70991 h 2.53817 v -7.70991 h 0.99289 v 7.70991 h 2.53816 v -7.70991 h 0.99289 v 7.70991 h 2.53818 v -7.70991 -2.54445 h -2.53818 -0.99289 -2.53816 -0.99289 z"
       id="rect4596-5"
       inkscape:connector-curvature="0" />
    <g
       aria-label="code"
       transform="rotate(-32.241263)"
       style="font-style:normal;font-weight:normal;font-size:10.58333302px;line-height:1.25;font-family:sans-serif;letter-spacing:0px;word-spacing:0px;fill:#4c006c;fill-opacity:0.94117647;stroke:none;stroke-width:0.26458332"
       id="text4627-4">
      <path
         d="m 73.401095,142.35993 -0.382406,0.23771 q -0.496093,-0.65801 -1.353922,-0.65801 -0.685574,0 -1.140327,0.44097 -0.451307,0.44098 -0.451307,1.07143 0,0.40996 0.206706,0.7717 0.21015,0.36173 0.571885,0.56155 0.36518,0.19982 0.816488,0.19982 0.826823,0 1.350477,-0.65802 l 0.382406,0.25149 q -0.268717,0.40308 -0.72347,0.62701 -0.451308,0.22049 -1.030084,0.22049 -0.888834,0 -1.4745,-0.565 -0.585667,-0.56499 -0.585667,-1.37459 0,-0.54433 0.272163,-1.00941 0.275608,-0.46854 0.754476,-0.73036 0.478868,-0.26183 1.071424,-0.26183 0.372071,0 0.71658,0.11369 0.347955,0.11368 0.589112,0.29628 0.241156,0.18259 0.409966,0.46508 z"
         style="font-style:normal;font-variant:normal;font-weight:normal;font-stretch:normal;font-size:7.05555534px;font-family:'Century Gothic';-inkscape-font-specification:'Century Gothic';fill:#4c006c;fill-opacity:0.94117647;stroke-width:0.26458332"
         id="path833" />
      <path
         d="m 76.098605,141.48488 q 0.864719,0 1.43316,0.62701 0.516764,0.57188 0.516764,1.35392 0,0.78548 -0.54777,1.37459 -0.544325,0.58567 -1.402154,0.58567 -0.861274,0 -1.409044,-0.58567 -0.544325,-0.58911 -0.544325,-1.37459 0,-0.77859 0.516764,-1.35048 0.568441,-0.63045 1.436605,-0.63045 z m 0,0.47198 q -0.599447,0 -1.030084,0.44441 -0.430637,0.44442 -0.430637,1.07487 0,0.40653 0.196371,0.75792 0.19637,0.3514 0.530545,0.54433 0.334174,0.18948 0.733805,0.18948 0.399631,0 0.733805,-0.18948 0.334174,-0.19293 0.530545,-0.54433 0.19637,-0.35139 0.19637,-0.75792 0,-0.63045 -0.434082,-1.07487 -0.430637,-0.44441 -1.026638,-0.44441 z"
         style="font-style:normal;font-variant:normal;font-weight:normal;font-stretch:normal;font-size:7.05555534px;font-family:'Century Gothic';-inkscape-font-specification:'Century Gothic';fill:#4c006c;fill-opacity:0.94117647;stroke-width:0.26458332"
         id="path835" />
      <path
         d="m 82.682182,140.1344 v 5.19521 h -0.475423 v -0.64424 q -0.303168,0.36863 -0.682129,0.55466 -0.375515,0.18604 -0.823378,0.18604 -0.795817,0 -1.360812,-0.57533 -0.561551,-0.57878 -0.561551,-1.4056 0,-0.8096 0.568441,-1.38493 0.568441,-0.57533 1.367703,-0.57533 0.461643,0 0.833713,0.19637 0.375515,0.19637 0.658013,0.58911 v -2.13596 z m -1.929253,1.81557 q -0.403076,0 -0.744141,0.19981 -0.341064,0.19637 -0.544325,0.55466 -0.199815,0.35829 -0.199815,0.75792 0,0.39619 0.20326,0.75792 0.203261,0.36174 0.544325,0.565 0.34451,0.19982 0.737251,0.19982 0.396186,0 0.75103,-0.19982 0.354845,-0.19982 0.544326,-0.54088 0.192925,-0.34106 0.192925,-0.76826 0,-0.65112 -0.430637,-1.08865 -0.427192,-0.43752 -1.054199,-0.43752 z"
         style="font-style:normal;font-variant:normal;font-weight:normal;font-stretch:normal;font-size:7.05555534px;font-family:'Century Gothic';-inkscape-font-specification:'Century Gothic';fill:#4c006c;fill-opacity:0.94117647;stroke-width:0.26458332"
         id="path837" />
      <path
         d="m 86.93343,144.08593 0.406521,0.21359 q -0.199815,0.39274 -0.461642,0.6339 -0.261828,0.24116 -0.589112,0.36862 -0.327284,0.12403 -0.740695,0.12403 -0.916396,0 -1.43316,-0.59945 -0.516764,-0.60289 -0.516764,-1.36081 0,-0.71314 0.437527,-1.27124 0.55466,-0.70969 1.484836,-0.70969 0.957736,0 1.529622,0.72691 0.406522,0.51332 0.413412,1.28158 h -3.369304 q 0.01378,0.65457 0.416857,1.07487 0.403076,0.41686 0.995633,0.41686 0.285942,0 0.55466,-0.0999 0.272162,-0.0999 0.461643,-0.26527 0.18948,-0.16537 0.409966,-0.53399 z m 0,-1.00942 q -0.09646,-0.38585 -0.282498,-0.61667 -0.18259,-0.23082 -0.485758,-0.37207 -0.303169,-0.14125 -0.637343,-0.14125 -0.551215,0 -0.947401,0.35485 -0.289388,0.25838 -0.437527,0.77514 z"
         style="font-style:normal;font-variant:normal;font-weight:normal;font-stretch:normal;font-size:7.05555534px;font-family:'Century Gothic';-inkscape-font-specification:'Century Gothic';fill:#4c006c;fill-opacity:0.94117647;stroke-width:0.26458332"
         id="path839" />
    </g>
    <path
       style="fill:#42fffd;fill-opacity:1;stroke:none;stroke-width:0.26458332px;stroke-linecap:butt;stroke-linejoin:miter;stroke-opacity:1"
       d="m 94.655777,82.322381 25.476743,15.36832 7.97782,-5.05127 z"
       id="path4646-6"
       inkscape:connector-curvature="0" />
    <path
       style="fill:#42fffd;fill-opacity:1;stroke:none;stroke-width:0.26458332px;stroke-linecap:butt;stroke-linejoin:miter;stroke-opacity:1"
       d="m 128.11034,92.639431 31.23388,-19.77623 -19.2513,23.61615 z"
       id="path4648-5"
       inkscape:connector-curvature="0" />
    <path
       style="fill:#ff00f6;fill-opacity:1;stroke:none;stroke-width:0.26458332px;stroke-linecap:butt;stroke-linejoin:miter;stroke-opacity:1"
       d="m 121.31688,98.405151 7.13439,-4.56133 11.01716,3.40162 -6.61723,8.117549 z"
       id="path4650-1"
       inkscape:connector-curvature="0" />
  </g>
</svg>
